<svg width="21" height="27" viewBox="0 0 21 27" fill="none" xmlns="http://www.w3.org/2000/svg">
<path d="M8.99063 20.5078L16.5047 12.9937L15.225 11.7141L8.99063 17.9484L5.61094 14.5688L4.33125 15.8484L8.99063 20.5078ZM1.96875 26.25C1.44375 26.25 0.984375 26.0531 0.590625 25.6594C0.196875 25.2656 0 24.8063 0 24.2813V1.96875C0 1.44375 0.196875 0.984375 0.590625 0.590625C0.984375 0.196875 1.44375 0 1.96875 0H13.8141L21 7.18594V24.2813C21 24.8063 20.8031 25.2656 20.4094 25.6594C20.0156 26.0531 19.5563 26.25 19.0313 26.25H1.96875ZM12.8297 8.07187V1.96875H1.96875V24.2813H19.0313V8.07187H12.8297ZM1.96875 1.96875V8.07187V1.96875V24.2813V1.96875Z" fill="url(#paint0_linear_206_1925)"/>
<defs>
<linearGradient id="paint0_linear_206_1925" x1="10.5" y1="0" x2="10.5" y2="26.25" gradientUnits="userSpaceOnUse">
<stop stop-color="#7A12FF"/>
<stop offset="1" stop-color="#7A12FF" stop-opacity="0.6"/>
</linearGradient>
</defs>
</svg>
